<svg width="24" height="24" viewBox="0 0 24 24" fill="none" xmlns="http://www.w3.org/2000/svg">
<g clip-path="url(#clip0_6_252)">
<path d="M19.875 17.75C18.4253 17.75 17.25 18.9253 17.25 20.375C17.25 21.8247 18.4253 23 19.875 23C21.3247 23 22.5 21.8248 22.5 20.375C22.5 18.9253 21.3247 17.75 19.875 17.75Z" stroke="white" stroke-width="1.5"/>
<path d="M12 2C10.5502 2 9.375 3.17521 9.375 4.625C9.375 6.07479 10.5502 7.25 12 7.25C13.4498 7.25 14.625 6.07479 14.625 4.625C14.625 3.17522 13.4498 2 12 2Z" stroke="white" stroke-width="1.5"/>
<path d="M4.125 17.75C2.67521 17.75 1.5 18.9253 1.5 20.375C1.5 21.8247 2.67521 23 4.125 23C5.57479 23 6.75 21.8248 6.75 20.375C6.75 18.9253 5.57479 17.75 4.125 17.75Z" stroke="white" stroke-width="1.5"/>
<path d="M19.8522 16.7779C19.8522 14.5814 20.1698 12.2382 15.6481 12.519L11.993 12.519M11.993 12.519L7.03074 12.519C5.54263 12.8087 3.95975 12.519 4.13431 16.9938M11.993 12.519L11.993 7.64362" stroke="white" stroke-width="1.5" stroke-linecap="round" stroke-linejoin="round"/>
</g>
<defs>
<clipPath id="clip0_6_252">
<rect width="24" height="24" fill="white" transform="translate(24 24) rotate(-180)"/>
</clipPath>
</defs>
</svg>
